<?xml version="1.0" encoding="utf-8"?>
<!-- Generator: Adobe Illustrator 21.0.2, SVG Export Plug-In . SVG Version: 6.00 Build 0)  -->
<svg version="1.1" id="Layer_1" xmlns="http://www.w3.org/2000/svg" xmlns:xlink="http://www.w3.org/1999/xlink" x="0px" y="0px"
	 viewBox="0 0 24 24" style="enable-background:new 0 0 24 24;" xml:space="preserve">
<style type="text/css">
	.st0{fill:#BDBDBD;}
</style>
<path class="st0" d="M20,5H4C3.4,5,3,5.4,3,6v1v1v3v1v3v1v3v1h1h5h1h5h1h4h1v-1v-3v-1v-3v-1V8V7V6C21,5.4,20.6,5,20,5z M9,19H4v-3h5
	V19z M9,15H4v-3h5V15z M9,11H4V8h5V11z M15,19h-5v-3h5V19z M15,15h-5v-3h5V15z M15,11h-5V8h5V11z M20,19h-4v-3h4V19z M20,15h-4v-3h4
	V15z M20,11h-4V8h4V11z"/>
</svg>
