<?xml version="1.0" encoding="utf-8"?>
<!-- Generator: Adobe Illustrator 21.0.2, SVG Export Plug-In . SVG Version: 6.00 Build 0)  -->
<svg version="1.1" id="Layer_1" xmlns="http://www.w3.org/2000/svg" xmlns:xlink="http://www.w3.org/1999/xlink" x="0px" y="0px"
	 viewBox="0 0 20 20" style="enable-background:new 0 0 20 20;" xml:space="preserve">
<style type="text/css">
	.st0{fill:#bdbdbd;}
</style>
<g>
	<path class="st0" d="M14,0H3H2v1v18v1h1h14h1v-1V5.4V4L14,0z M17,19H3V1h10.6L17,4.4V19z"/>
	<path class="st0" d="M10,5C8.4,5,6.9,5.8,6,7V5H5v3v1h0.1H6h0.1H9V8H6.5c0.7-1.2,2-2,3.5-2c2.2,0,4,1.8,4,4s-1.8,4-4,4
		c-1.9,0-3.4-1.3-3.9-3l-1,0.3C5.7,13.4,7.7,15,10,15c2.8,0,5-2.2,5-5S12.8,5,10,5z"/>
</g>
</svg>
