<?xml version="1.0" encoding="utf-8"?>
<!-- Generator: Adobe Illustrator 21.0.2, SVG Export Plug-In . SVG Version: 6.00 Build 0)  -->
<svg version="1.1" id="Layer_1" xmlns="http://www.w3.org/2000/svg" xmlns:xlink="http://www.w3.org/1999/xlink" x="0px" y="0px"
	 viewBox="0 0 24 24" style="enable-background:new 0 0 24 24;" xml:space="preserve">
<style type="text/css">
	.st0{fill:#bdbdbd;}
</style>
<g>
	<path class="st0" d="M15.9,14.5c-2.3,0-6.2,1.6-6.8,3.6c0.4,2,4.5,3.6,6.8,3.6c2.3,0,6.3-1.6,6.8-3.6C22,16.2,18.2,14.5,15.9,14.5z
		 M15.9,20.8c-1.5,0-2.7-1.2-2.7-2.7c0-1.5,1.2-2.7,2.7-2.7c1.5,0,2.7,1.2,2.7,2.7C18.6,19.6,17.4,20.8,15.9,20.8z"/>
	<circle class="st0" cx="15.9" cy="18.1" r="1.6"/>
	<rect x="10" y="2" class="st0" width="10" height="10"/>
	<path class="st0" d="M7.1,18H4V9H2v9v2h2h4.1c-0.6-0.6-0.9-1.2-1.1-1.9C7.1,18.1,7.1,18,7.1,18z"/>
	<path class="st0" d="M8,14V5H6v9v2h2h0.4c0.8-0.8,1.9-1.5,3.1-2H8z"/>
</g>
</svg>
