<svg _ngcontent-ivk-c174="" width="40" height="41" viewBox="0 0 40 41" fill="none" xmlns="http://www.w3.org/2000/svg">
<path _ngcontent-ivk-c174="" d="M17.1503 6.6L3.03361 30.1667C2.74256 30.6707 2.58856 31.2422 2.58693 31.8242C2.5853 32.4062 2.7361 32.9785 3.02432 33.4842C3.31255 33.9899 3.72815 34.4112 4.22979 34.7064C4.73143 35.0016 5.30161 35.1603 5.88361 35.1667H34.1169C34.6989 35.1603 35.2691 35.0016 35.7708 34.7064C36.2724 34.4112 36.688 33.9899 36.9762 33.4842C37.2645 32.9785 37.4153 32.4062 37.4136 31.8242C37.412 31.2422 37.258 30.6707 36.9669 30.1667L22.8503 6.6C22.5532 6.11017 22.1348 5.70519 21.6356 5.42414C21.1364 5.14308 20.5732 4.99542 20.0003 4.99542C19.4274 4.99542 18.8642 5.14308 18.365 5.42414C17.8657 5.70519 17.4474 6.11017 17.1503 6.6V6.6Z" stroke="#FF5B2D" stroke-width="2" stroke-linecap="round" stroke-linejoin="round"></path>
<path _ngcontent-ivk-c174="" d="M20 15.1665V21.8332" stroke="#FF5B2D" stroke-width="2" stroke-linecap="round" stroke-linejoin="round"></path>
<path _ngcontent-ivk-c174="" d="M20 28.4998H20.0167" stroke="#FF5B2D" stroke-width="2" stroke-linecap="round" stroke-linejoin="round"></path>
</svg>