<svg width="49" height="49" viewBox="0 0 49 49" fill="none" xmlns="http://www.w3.org/2000/svg">
  <path d="M24.1631 44.1426C35.2088 44.1426 44.1631 35.1883 44.1631 24.1426C44.1631 13.0969 35.2088 4.14258 24.1631 4.14258C13.1174 4.14258 4.16309 13.0969 4.16309 24.1426C4.16309 35.1883 13.1174 44.1426 24.1631 44.1426Z" stroke="#BDBDBD" stroke-width="3" stroke-linecap="round" stroke-linejoin="round"></path>
  <path d="M18.3428 18.1426C18.813 16.806 19.7411 15.6788 20.9627 14.9609C22.1843 14.2429 23.6206 13.9805 25.0171 14.22C26.4137 14.4596 27.6804 15.1857 28.5929 16.2697C29.5055 17.3537 30.0049 18.7257 30.0028 20.1426C30.0028 24.1426 24.0028 26.1426 24.0028 26.1426" stroke="#BDBDBD" stroke-width="3" stroke-linecap="round" stroke-linejoin="round"></path>
  <path d="M24.1631 34.1426H24.1831" stroke="#BDBDBD" stroke-width="3" stroke-linecap="round" stroke-linejoin="round"></path>
</svg>