<?xml version="1.0" encoding="utf-8"?>
<!-- Generator: Adobe Illustrator 21.0.2, SVG Export Plug-In . SVG Version: 6.00 Build 0)  -->
<svg version="1.1" id="Layer_1" xmlns="http://www.w3.org/2000/svg" xmlns:xlink="http://www.w3.org/1999/xlink" x="0px" y="0px"
	 viewBox="0 0 16 16" style="enable-background:new 0 0 16 16;" xml:space="preserve">
<style type="text/css">
	.st0{fill:none;}
	.st1{fill:#bdbdbd;}
</style>
<path class="st1" d="M13.1,7.2c0,0,0-0.1,0-0.1c0-2.3-1.9-4.2-4.2-4.2c-1.6,0-3.1,1-3.7,2.4c-0.3-0.1-0.6-0.2-1-0.2
	C3.2,5.1,2.3,5.9,2.2,7C0.9,7.4,0,8.5,0,9.9c0,1.8,1.4,3.3,3.2,3.3h9.9c1.6,0,2.9-1.4,2.9-3C16,8.6,14.7,7.2,13.1,7.2z M12.6,12.3
	l-0.1,0H3.6c-1.3,0-2.4-1.1-2.4-2.5c0-1,0.7-1.9,1.6-2.3l0.3-0.1l0-0.3c0.1-0.7,0.7-1.3,1.4-1.3C4.8,5.8,5,5.9,5.2,6l0.4,0.2
	l0.2-0.5c0.5-1.1,1.7-1.9,3-1.9c1.8,0,3.3,1.4,3.3,3.3c0,0.4,0,0.7,0,0.7l0.5,0c1.2,0,2.2,1,2.2,2.2S13.9,12.3,12.6,12.3z"/>
<rect x="8" y="5" class="st1" width="1" height="7"/>
<rect x="7" y="10" transform="matrix(0.7071 -0.7071 0.7071 0.7071 -5.935 8.6716)" class="st1" width="1" height="3"/>
<rect x="9" y="10" transform="matrix(0.7071 0.7071 -0.7071 0.7071 10.9142 -3.3492)" class="st1" width="1" height="3"/>
</svg>
