<svg xmlns="http://www.w3.org/2000/svg" version="1.0" width="955.000000pt" height="536.000000pt" viewBox="0 0 955.000000 536.000000" preserveAspectRatio="xMidYMid meet">
  <g transform="translate(0.000000,536.000000) scale(0.100000,-0.100000)" fill="#000000" stroke="none">
    <path d="M0 4540 l0 -820 3705 0 3705 0 0 820 0 820 -3705 0 -3705 0 0 -820z" fill="#3cb4ec"/>
    <path d="M2140 2680 l0 -820 3705 0 3705 0 0 820 0 820 -3705 0 -3705 0 0 -820z" fill="#0484fc"/>
    <path d="M1070 820 l0 -820 3705 0 3705 0 0 820 0 820 -3705 0 -3705 0 0 -820z" fill="#043c94"/>
  </g>
</svg>